<mxfile>
    <diagram id="QPALop0nL6Ty0_u11_fc" name="第 1 页">
        <mxGraphModel dx="973" dy="499" grid="1" gridSize="10" guides="1" tooltips="1" connect="1" arrows="1" fold="1" page="1" pageScale="1" pageWidth="1169" pageHeight="827" math="0" shadow="0">
            <root>
                <mxCell id="0"/>
                <mxCell id="1" parent="0"/>
                <mxCell id="3" value=" to" style="swimlane;fillColor=#7cd6cf;fontColor=#000000;startSize=30;fontSize=15;" vertex="1" parent="1">
                    <mxGeometry x="200" y="120" width="70" height="50" as="geometry"/>
                </mxCell>
                <mxCell id="12" value="" style="endArrow=classic;html=1;fontSize=15;fontColor=#000000;gradientColor=#ea6b66;fillColor=#f8cecc;strokeColor=#b85450;strokeWidth=2;entryX=0;entryY=0.5;entryDx=0;entryDy=0;" edge="1" parent="3" target="4">
                    <mxGeometry width="50" height="50" relative="1" as="geometry">
                        <mxPoint x="30" y="41.25" as="sourcePoint"/>
                        <mxPoint x="90" y="40.5" as="targetPoint"/>
                    </mxGeometry>
                </mxCell>
                <mxCell id="4" value="be" style="swimlane;fillColor=#7cd6cf;fontColor=#000000;startSize=30;fontSize=15;" vertex="1" parent="1">
                    <mxGeometry x="320" y="120" width="70" height="50" as="geometry"/>
                </mxCell>
                <mxCell id="5" value="or" style="swimlane;fillColor=#7cd6cf;fontColor=#000000;startSize=30;fontSize=15;" vertex="1" parent="1">
                    <mxGeometry x="450" y="120" width="70" height="50" as="geometry"/>
                </mxCell>
                <mxCell id="6" value="null" style="text;html=1;align=center;verticalAlign=middle;resizable=0;points=[];autosize=1;fontSize=15;fontColor=#000000;" vertex="1" parent="1">
                    <mxGeometry x="462" y="151" width="40" height="20" as="geometry"/>
                </mxCell>
                <mxCell id="7" value="first" style="text;html=1;align=center;verticalAlign=middle;resizable=0;points=[];autosize=1;fontSize=15;fontColor=#000000;" vertex="1" parent="1">
                    <mxGeometry x="100" y="151" width="40" height="20" as="geometry"/>
                </mxCell>
                <mxCell id="8" value="oldfirst" style="text;html=1;align=center;verticalAlign=middle;resizable=0;points=[];autosize=1;fontSize=15;fontColor=#000000;" vertex="1" parent="1">
                    <mxGeometry x="100" y="100" width="60" height="20" as="geometry"/>
                </mxCell>
                <mxCell id="9" value="" style="endArrow=classic;html=1;fontSize=15;fontColor=#000000;gradientColor=#ea6b66;fillColor=#f8cecc;strokeColor=#b85450;strokeWidth=2;" edge="1" parent="1" source="7">
                    <mxGeometry width="50" height="50" relative="1" as="geometry">
                        <mxPoint x="140" y="160" as="sourcePoint"/>
                        <mxPoint x="200" y="160" as="targetPoint"/>
                    </mxGeometry>
                </mxCell>
                <mxCell id="11" value="" style="endArrow=classic;html=1;fontSize=15;fontColor=#000000;gradientColor=#ea6b66;fillColor=#f8cecc;strokeColor=#b85450;strokeWidth=2;" edge="1" parent="1">
                    <mxGeometry width="50" height="50" relative="1" as="geometry">
                        <mxPoint x="150" y="120" as="sourcePoint"/>
                        <mxPoint x="200" y="160" as="targetPoint"/>
                    </mxGeometry>
                </mxCell>
                <mxCell id="13" value="" style="endArrow=classic;html=1;fontSize=15;fontColor=#000000;gradientColor=#ea6b66;fillColor=#f8cecc;strokeColor=#b85450;strokeWidth=2;entryX=0;entryY=0.5;entryDx=0;entryDy=0;" edge="1" parent="1" target="5">
                    <mxGeometry width="50" height="50" relative="1" as="geometry">
                        <mxPoint x="360" y="160.13" as="sourcePoint"/>
                        <mxPoint x="450" y="143.88" as="targetPoint"/>
                    </mxGeometry>
                </mxCell>
                <mxCell id="14" value=" to" style="swimlane;fillColor=#7cd6cf;fontColor=#000000;startSize=30;fontSize=15;" vertex="1" parent="1">
                    <mxGeometry x="340" y="230" width="70" height="50" as="geometry"/>
                </mxCell>
                <mxCell id="15" value="" style="endArrow=classic;html=1;fontSize=15;fontColor=#000000;gradientColor=#ea6b66;fillColor=#f8cecc;strokeColor=#b85450;strokeWidth=2;entryX=0;entryY=0.5;entryDx=0;entryDy=0;" edge="1" parent="14" target="16">
                    <mxGeometry width="50" height="50" relative="1" as="geometry">
                        <mxPoint x="30" y="41.25" as="sourcePoint"/>
                        <mxPoint x="90" y="40.5" as="targetPoint"/>
                    </mxGeometry>
                </mxCell>
                <mxCell id="16" value="be" style="swimlane;fillColor=#7cd6cf;fontColor=#000000;startSize=30;fontSize=15;" vertex="1" parent="1">
                    <mxGeometry x="460" y="230" width="70" height="50" as="geometry"/>
                </mxCell>
                <mxCell id="17" value="or" style="swimlane;fillColor=#7cd6cf;fontColor=#000000;startSize=30;fontSize=15;" vertex="1" parent="1">
                    <mxGeometry x="590" y="230" width="70" height="50" as="geometry"/>
                </mxCell>
                <mxCell id="18" value="null" style="text;html=1;align=center;verticalAlign=middle;resizable=0;points=[];autosize=1;fontSize=15;fontColor=#000000;" vertex="1" parent="1">
                    <mxGeometry x="602" y="261" width="40" height="20" as="geometry"/>
                </mxCell>
                <mxCell id="19" value="first" style="text;html=1;align=center;verticalAlign=middle;resizable=0;points=[];autosize=1;fontSize=15;fontColor=#000000;" vertex="1" parent="1">
                    <mxGeometry x="75" y="260" width="40" height="20" as="geometry"/>
                </mxCell>
                <mxCell id="20" value="oldfirst" style="text;html=1;align=center;verticalAlign=middle;resizable=0;points=[];autosize=1;fontSize=15;fontColor=#000000;" vertex="1" parent="1">
                    <mxGeometry x="240" y="210" width="60" height="20" as="geometry"/>
                </mxCell>
                <mxCell id="22" value="" style="endArrow=classic;html=1;fontSize=15;fontColor=#000000;gradientColor=#ea6b66;fillColor=#f8cecc;strokeColor=#b85450;strokeWidth=2;" edge="1" parent="1">
                    <mxGeometry width="50" height="50" relative="1" as="geometry">
                        <mxPoint x="290" y="230" as="sourcePoint"/>
                        <mxPoint x="340" y="270" as="targetPoint"/>
                    </mxGeometry>
                </mxCell>
                <mxCell id="23" value="" style="endArrow=classic;html=1;fontSize=15;fontColor=#000000;gradientColor=#ea6b66;fillColor=#f8cecc;strokeColor=#b85450;strokeWidth=2;entryX=0;entryY=0.5;entryDx=0;entryDy=0;" edge="1" parent="1" target="17">
                    <mxGeometry width="50" height="50" relative="1" as="geometry">
                        <mxPoint x="500" y="270.13" as="sourcePoint"/>
                        <mxPoint x="590" y="253.88" as="targetPoint"/>
                    </mxGeometry>
                </mxCell>
                <mxCell id="24" value="" style="endArrow=classic;html=1;fontSize=15;fontColor=#000000;gradientColor=#ea6b66;fillColor=#f8cecc;strokeColor=#b85450;strokeWidth=2;" edge="1" parent="1">
                    <mxGeometry width="50" height="50" relative="1" as="geometry">
                        <mxPoint x="115" y="271.25" as="sourcePoint"/>
                        <mxPoint x="175" y="270.5" as="targetPoint"/>
                    </mxGeometry>
                </mxCell>
                <mxCell id="25" value="" style="swimlane;fillColor=#7cd6cf;fontColor=#000000;startSize=30;fontSize=15;" vertex="1" parent="1">
                    <mxGeometry x="174" y="257" width="70" height="50" as="geometry"/>
                </mxCell>
                <mxCell id="27" value=" to" style="swimlane;fillColor=#7cd6cf;fontColor=#000000;startSize=30;fontSize=15;" vertex="1" parent="1">
                    <mxGeometry x="312" y="350" width="70" height="50" as="geometry"/>
                </mxCell>
                <mxCell id="28" value="" style="endArrow=classic;html=1;fontSize=15;fontColor=#000000;gradientColor=#ea6b66;fillColor=#f8cecc;strokeColor=#b85450;strokeWidth=2;entryX=0;entryY=0.5;entryDx=0;entryDy=0;" edge="1" parent="27" target="29">
                    <mxGeometry width="50" height="50" relative="1" as="geometry">
                        <mxPoint x="30" y="41.25" as="sourcePoint"/>
                        <mxPoint x="90" y="40.5" as="targetPoint"/>
                    </mxGeometry>
                </mxCell>
                <mxCell id="29" value="be" style="swimlane;fillColor=#7cd6cf;fontColor=#000000;startSize=30;fontSize=15;" vertex="1" parent="1">
                    <mxGeometry x="432" y="350" width="70" height="50" as="geometry"/>
                </mxCell>
                <mxCell id="30" value="or" style="swimlane;fillColor=#7cd6cf;fontColor=#000000;startSize=30;fontSize=15;" vertex="1" parent="1">
                    <mxGeometry x="562" y="350" width="70" height="50" as="geometry"/>
                </mxCell>
                <mxCell id="31" value="null" style="text;html=1;align=center;verticalAlign=middle;resizable=0;points=[];autosize=1;fontSize=15;fontColor=#000000;" vertex="1" parent="1">
                    <mxGeometry x="574" y="381" width="40" height="20" as="geometry"/>
                </mxCell>
                <mxCell id="32" value="first" style="text;html=1;align=center;verticalAlign=middle;resizable=0;points=[];autosize=1;fontSize=15;fontColor=#000000;" vertex="1" parent="1">
                    <mxGeometry x="75" y="365" width="40" height="20" as="geometry"/>
                </mxCell>
                <mxCell id="34" value="" style="endArrow=classic;html=1;fontSize=15;fontColor=#000000;gradientColor=#ea6b66;fillColor=#f8cecc;strokeColor=#b85450;strokeWidth=2;entryX=0;entryY=0.25;entryDx=0;entryDy=0;" edge="1" parent="1" target="27">
                    <mxGeometry width="50" height="50" relative="1" as="geometry">
                        <mxPoint x="220" y="390" as="sourcePoint"/>
                        <mxPoint x="340" y="390" as="targetPoint"/>
                    </mxGeometry>
                </mxCell>
                <mxCell id="35" value="" style="endArrow=classic;html=1;fontSize=15;fontColor=#000000;gradientColor=#ea6b66;fillColor=#f8cecc;strokeColor=#b85450;strokeWidth=2;entryX=0;entryY=0.5;entryDx=0;entryDy=0;" edge="1" parent="1" target="30">
                    <mxGeometry width="50" height="50" relative="1" as="geometry">
                        <mxPoint x="472" y="390.13" as="sourcePoint"/>
                        <mxPoint x="562" y="373.88" as="targetPoint"/>
                    </mxGeometry>
                </mxCell>
                <mxCell id="36" value="" style="endArrow=classic;html=1;fontSize=15;fontColor=#000000;gradientColor=#ea6b66;fillColor=#f8cecc;strokeColor=#b85450;strokeWidth=2;entryX=0;entryY=0.5;entryDx=0;entryDy=0;exitX=1.062;exitY=0.477;exitDx=0;exitDy=0;exitPerimeter=0;" edge="1" parent="1" source="32" target="37">
                    <mxGeometry width="50" height="50" relative="1" as="geometry">
                        <mxPoint x="115" y="391.25" as="sourcePoint"/>
                        <mxPoint x="175" y="390.5" as="targetPoint"/>
                    </mxGeometry>
                </mxCell>
                <mxCell id="37" value="not" style="swimlane;fillColor=#7cd6cf;fontColor=#000000;startSize=30;fontSize=15;" vertex="1" parent="1">
                    <mxGeometry x="180" y="350" width="70" height="50" as="geometry"/>
                </mxCell>
            </root>
        </mxGraphModel>
    </diagram>
    <diagram name="第 2 页" id="3UYlPIT7I2TB9PNyq84p">
        <mxGraphModel dx="973" dy="499" grid="1" gridSize="10" guides="1" tooltips="1" connect="1" arrows="1" fold="1" page="1" pageScale="1" pageWidth="1169" pageHeight="827" math="0" shadow="0">
            <root>
                <mxCell id="CIh1_JPoJijUl0gB3AhO-0"/>
                <mxCell id="CIh1_JPoJijUl0gB3AhO-1" parent="CIh1_JPoJijUl0gB3AhO-0"/>
                <mxCell id="CIh1_JPoJijUl0gB3AhO-2" value=" to" style="swimlane;fillColor=#7cd6cf;fontColor=#000000;startSize=30;fontSize=15;" vertex="1" parent="CIh1_JPoJijUl0gB3AhO-1">
                    <mxGeometry x="200" y="120" width="70" height="50" as="geometry"/>
                </mxCell>
                <mxCell id="CIh1_JPoJijUl0gB3AhO-3" value="" style="endArrow=classic;html=1;fontSize=15;fontColor=#000000;gradientColor=#ea6b66;fillColor=#f8cecc;strokeColor=#b85450;strokeWidth=2;entryX=0;entryY=0.5;entryDx=0;entryDy=0;" edge="1" parent="CIh1_JPoJijUl0gB3AhO-2" target="CIh1_JPoJijUl0gB3AhO-4">
                    <mxGeometry width="50" height="50" relative="1" as="geometry">
                        <mxPoint x="30" y="41.25" as="sourcePoint"/>
                        <mxPoint x="90" y="40.5" as="targetPoint"/>
                    </mxGeometry>
                </mxCell>
                <mxCell id="CIh1_JPoJijUl0gB3AhO-4" value="be" style="swimlane;fillColor=#7cd6cf;fontColor=#000000;startSize=30;fontSize=15;" vertex="1" parent="CIh1_JPoJijUl0gB3AhO-1">
                    <mxGeometry x="320" y="120" width="70" height="50" as="geometry"/>
                </mxCell>
                <mxCell id="CIh1_JPoJijUl0gB3AhO-5" value="or" style="swimlane;fillColor=#7cd6cf;fontColor=#000000;startSize=30;fontSize=15;" vertex="1" parent="CIh1_JPoJijUl0gB3AhO-1">
                    <mxGeometry x="450" y="120" width="70" height="50" as="geometry"/>
                </mxCell>
                <mxCell id="CIh1_JPoJijUl0gB3AhO-6" value="null" style="text;html=1;align=center;verticalAlign=middle;resizable=0;points=[];autosize=1;fontSize=15;fontColor=#000000;" vertex="1" parent="CIh1_JPoJijUl0gB3AhO-1">
                    <mxGeometry x="462" y="151" width="40" height="20" as="geometry"/>
                </mxCell>
                <mxCell id="CIh1_JPoJijUl0gB3AhO-7" value="first" style="text;html=1;align=center;verticalAlign=middle;resizable=0;points=[];autosize=1;fontSize=15;fontColor=#000000;" vertex="1" parent="CIh1_JPoJijUl0gB3AhO-1">
                    <mxGeometry x="100" y="151" width="40" height="20" as="geometry"/>
                </mxCell>
                <mxCell id="CIh1_JPoJijUl0gB3AhO-9" value="" style="endArrow=classic;html=1;fontSize=15;fontColor=#000000;gradientColor=#ea6b66;fillColor=#f8cecc;strokeColor=#b85450;strokeWidth=2;" edge="1" parent="CIh1_JPoJijUl0gB3AhO-1" source="CIh1_JPoJijUl0gB3AhO-7">
                    <mxGeometry width="50" height="50" relative="1" as="geometry">
                        <mxPoint x="140" y="160" as="sourcePoint"/>
                        <mxPoint x="200" y="160" as="targetPoint"/>
                    </mxGeometry>
                </mxCell>
                <mxCell id="CIh1_JPoJijUl0gB3AhO-11" value="" style="endArrow=classic;html=1;fontSize=15;fontColor=#000000;gradientColor=#ea6b66;fillColor=#f8cecc;strokeColor=#b85450;strokeWidth=2;entryX=0;entryY=0.5;entryDx=0;entryDy=0;" edge="1" parent="CIh1_JPoJijUl0gB3AhO-1" target="CIh1_JPoJijUl0gB3AhO-5">
                    <mxGeometry width="50" height="50" relative="1" as="geometry">
                        <mxPoint x="360" y="160.13" as="sourcePoint"/>
                        <mxPoint x="450" y="143.88" as="targetPoint"/>
                    </mxGeometry>
                </mxCell>
                <mxCell id="CIh1_JPoJijUl0gB3AhO-33" value=" to" style="swimlane;fillColor=#e1d5e7;startSize=30;fontSize=15;strokeColor=#9673a6;fontColor=#000000;" vertex="1" parent="CIh1_JPoJijUl0gB3AhO-1">
                    <mxGeometry x="200" y="210" width="70" height="50" as="geometry"/>
                </mxCell>
                <mxCell id="CIh1_JPoJijUl0gB3AhO-34" value="" style="endArrow=classic;html=1;fontSize=15;fontColor=#000000;gradientColor=#ea6b66;fillColor=#f8cecc;strokeWidth=2;entryX=0;entryY=0.5;entryDx=0;entryDy=0;strokeColor=#CCCCCC;" edge="1" parent="CIh1_JPoJijUl0gB3AhO-33" target="CIh1_JPoJijUl0gB3AhO-35">
                    <mxGeometry width="50" height="50" relative="1" as="geometry">
                        <mxPoint x="30" y="41.25" as="sourcePoint"/>
                        <mxPoint x="90" y="40.5" as="targetPoint"/>
                    </mxGeometry>
                </mxCell>
                <mxCell id="CIh1_JPoJijUl0gB3AhO-35" value="be" style="swimlane;fillColor=#7cd6cf;fontColor=#000000;startSize=30;fontSize=15;" vertex="1" parent="CIh1_JPoJijUl0gB3AhO-1">
                    <mxGeometry x="320" y="210" width="70" height="50" as="geometry"/>
                </mxCell>
                <mxCell id="CIh1_JPoJijUl0gB3AhO-36" value="or" style="swimlane;fillColor=#7cd6cf;fontColor=#000000;startSize=30;fontSize=15;" vertex="1" parent="CIh1_JPoJijUl0gB3AhO-1">
                    <mxGeometry x="450" y="210" width="70" height="50" as="geometry"/>
                </mxCell>
                <mxCell id="CIh1_JPoJijUl0gB3AhO-37" value="null" style="text;html=1;align=center;verticalAlign=middle;resizable=0;points=[];autosize=1;fontSize=15;fontColor=#000000;" vertex="1" parent="CIh1_JPoJijUl0gB3AhO-1">
                    <mxGeometry x="462" y="241" width="40" height="20" as="geometry"/>
                </mxCell>
                <mxCell id="CIh1_JPoJijUl0gB3AhO-38" value="first" style="text;html=1;align=center;verticalAlign=middle;resizable=0;points=[];autosize=1;fontSize=15;fontColor=#000000;" vertex="1" parent="CIh1_JPoJijUl0gB3AhO-1">
                    <mxGeometry x="100" y="241" width="40" height="20" as="geometry"/>
                </mxCell>
                <mxCell id="CIh1_JPoJijUl0gB3AhO-39" value="" style="endArrow=classic;html=1;fontSize=15;fontColor=#000000;gradientColor=#ea6b66;fillColor=#f8cecc;strokeColor=#b85450;strokeWidth=2;entryX=0;entryY=0.5;entryDx=0;entryDy=0;" edge="1" parent="CIh1_JPoJijUl0gB3AhO-1" source="CIh1_JPoJijUl0gB3AhO-38" target="CIh1_JPoJijUl0gB3AhO-35">
                    <mxGeometry width="50" height="50" relative="1" as="geometry">
                        <mxPoint x="140" y="250" as="sourcePoint"/>
                        <mxPoint x="200" y="250" as="targetPoint"/>
                    </mxGeometry>
                </mxCell>
                <mxCell id="CIh1_JPoJijUl0gB3AhO-40" value="" style="endArrow=classic;html=1;fontSize=15;fontColor=#000000;gradientColor=#ea6b66;fillColor=#f8cecc;strokeColor=#b85450;strokeWidth=2;entryX=0;entryY=0.5;entryDx=0;entryDy=0;" edge="1" parent="CIh1_JPoJijUl0gB3AhO-1" target="CIh1_JPoJijUl0gB3AhO-36">
                    <mxGeometry width="50" height="50" relative="1" as="geometry">
                        <mxPoint x="360" y="250.13" as="sourcePoint"/>
                        <mxPoint x="450" y="233.88" as="targetPoint"/>
                    </mxGeometry>
                </mxCell>
            </root>
        </mxGraphModel>
    </diagram>
    <diagram name="第 3 页" id="FNIa38ZkO9NpYN_7CF2g">
        <mxGraphModel dx="973" dy="499" grid="1" gridSize="10" guides="1" tooltips="1" connect="1" arrows="1" fold="1" page="1" pageScale="1" pageWidth="1169" pageHeight="827" math="0" shadow="0">
            <root>
                <mxCell id="BKhqqBYb4dWHDMiC_eZC-0"/>
                <mxCell id="BKhqqBYb4dWHDMiC_eZC-1" parent="BKhqqBYb4dWHDMiC_eZC-0"/>
                <mxCell id="BKhqqBYb4dWHDMiC_eZC-2" value=" to" style="swimlane;fillColor=#7cd6cf;fontColor=#000000;startSize=30;fontSize=15;" vertex="1" parent="BKhqqBYb4dWHDMiC_eZC-1">
                    <mxGeometry x="200" y="108" width="70" height="50" as="geometry"/>
                </mxCell>
                <mxCell id="BKhqqBYb4dWHDMiC_eZC-3" value="" style="endArrow=classic;html=1;fontSize=15;fontColor=#000000;gradientColor=#ea6b66;fillColor=#f8cecc;strokeColor=#b85450;strokeWidth=2;entryX=0;entryY=0.5;entryDx=0;entryDy=0;" edge="1" parent="BKhqqBYb4dWHDMiC_eZC-2" target="BKhqqBYb4dWHDMiC_eZC-4">
                    <mxGeometry width="50" height="50" relative="1" as="geometry">
                        <mxPoint x="30" y="41.25" as="sourcePoint"/>
                        <mxPoint x="90" y="40.5" as="targetPoint"/>
                    </mxGeometry>
                </mxCell>
                <mxCell id="BKhqqBYb4dWHDMiC_eZC-4" value="be" style="swimlane;fillColor=#7cd6cf;fontColor=#000000;startSize=30;fontSize=15;" vertex="1" parent="BKhqqBYb4dWHDMiC_eZC-1">
                    <mxGeometry x="320" y="108" width="70" height="50" as="geometry"/>
                </mxCell>
                <mxCell id="BKhqqBYb4dWHDMiC_eZC-5" value="or" style="swimlane;fillColor=#7cd6cf;fontColor=#000000;startSize=30;fontSize=15;" vertex="1" parent="BKhqqBYb4dWHDMiC_eZC-1">
                    <mxGeometry x="450" y="108" width="70" height="50" as="geometry"/>
                </mxCell>
                <mxCell id="BKhqqBYb4dWHDMiC_eZC-6" value="null" style="text;html=1;align=center;verticalAlign=middle;resizable=0;points=[];autosize=1;fontSize=15;fontColor=#000000;" vertex="1" parent="BKhqqBYb4dWHDMiC_eZC-1">
                    <mxGeometry x="462" y="139" width="40" height="20" as="geometry"/>
                </mxCell>
                <mxCell id="BKhqqBYb4dWHDMiC_eZC-7" value="first" style="text;html=1;align=center;verticalAlign=middle;resizable=0;points=[];autosize=1;fontSize=15;fontColor=#000000;" vertex="1" parent="BKhqqBYb4dWHDMiC_eZC-1">
                    <mxGeometry x="100" y="139" width="40" height="20" as="geometry"/>
                </mxCell>
                <mxCell id="BKhqqBYb4dWHDMiC_eZC-8" value="" style="endArrow=classic;html=1;fontSize=15;fontColor=#000000;gradientColor=#ea6b66;fillColor=#f8cecc;strokeColor=#b85450;strokeWidth=2;" edge="1" parent="BKhqqBYb4dWHDMiC_eZC-1" source="BKhqqBYb4dWHDMiC_eZC-7">
                    <mxGeometry width="50" height="50" relative="1" as="geometry">
                        <mxPoint x="140" y="148" as="sourcePoint"/>
                        <mxPoint x="200" y="148" as="targetPoint"/>
                    </mxGeometry>
                </mxCell>
                <mxCell id="BKhqqBYb4dWHDMiC_eZC-9" value="" style="endArrow=classic;html=1;fontSize=15;fontColor=#000000;gradientColor=#ea6b66;fillColor=#f8cecc;strokeColor=#b85450;strokeWidth=2;entryX=0;entryY=0.5;entryDx=0;entryDy=0;" edge="1" parent="BKhqqBYb4dWHDMiC_eZC-1" target="BKhqqBYb4dWHDMiC_eZC-5">
                    <mxGeometry width="50" height="50" relative="1" as="geometry">
                        <mxPoint x="360" y="148.13" as="sourcePoint"/>
                        <mxPoint x="450" y="131.88" as="targetPoint"/>
                    </mxGeometry>
                </mxCell>
                <mxCell id="BKhqqBYb4dWHDMiC_eZC-18" value="last" style="text;html=1;align=center;verticalAlign=middle;resizable=0;points=[];autosize=1;fontSize=15;fontColor=#000000;" vertex="1" parent="BKhqqBYb4dWHDMiC_eZC-1">
                    <mxGeometry x="370" y="78" width="40" height="20" as="geometry"/>
                </mxCell>
                <mxCell id="BKhqqBYb4dWHDMiC_eZC-19" value="oldlast" style="text;html=1;align=center;verticalAlign=middle;resizable=0;points=[];autosize=1;fontSize=15;fontColor=#000000;" vertex="1" parent="BKhqqBYb4dWHDMiC_eZC-1">
                    <mxGeometry x="390" y="48" width="60" height="20" as="geometry"/>
                </mxCell>
                <mxCell id="BKhqqBYb4dWHDMiC_eZC-20" value="" style="endArrow=classic;html=1;fontSize=15;fontColor=#000000;gradientColor=#ea6b66;fillColor=#f8cecc;strokeColor=#b85450;strokeWidth=2;" edge="1" parent="BKhqqBYb4dWHDMiC_eZC-1" source="BKhqqBYb4dWHDMiC_eZC-18">
                    <mxGeometry width="50" height="50" relative="1" as="geometry">
                        <mxPoint x="150" y="158.75" as="sourcePoint"/>
                        <mxPoint x="450" y="128" as="targetPoint"/>
                    </mxGeometry>
                </mxCell>
                <mxCell id="BKhqqBYb4dWHDMiC_eZC-21" value="" style="endArrow=classic;html=1;fontSize=15;fontColor=#000000;gradientColor=#ea6b66;fillColor=#f8cecc;strokeColor=#b85450;strokeWidth=2;entryX=0;entryY=0.5;entryDx=0;entryDy=0;exitX=0.367;exitY=1;exitDx=0;exitDy=0;exitPerimeter=0;" edge="1" parent="BKhqqBYb4dWHDMiC_eZC-1" source="BKhqqBYb4dWHDMiC_eZC-19" target="BKhqqBYb4dWHDMiC_eZC-5">
                    <mxGeometry width="50" height="50" relative="1" as="geometry">
                        <mxPoint x="412" y="108" as="sourcePoint"/>
                        <mxPoint x="460" y="148" as="targetPoint"/>
                    </mxGeometry>
                </mxCell>
                <mxCell id="BKhqqBYb4dWHDMiC_eZC-22" value=" to" style="swimlane;fillColor=#7cd6cf;fontColor=#000000;startSize=30;fontSize=15;" vertex="1" parent="BKhqqBYb4dWHDMiC_eZC-1">
                    <mxGeometry x="200" y="211" width="70" height="50" as="geometry"/>
                </mxCell>
                <mxCell id="BKhqqBYb4dWHDMiC_eZC-23" value="" style="endArrow=classic;html=1;fontSize=15;fontColor=#000000;gradientColor=#ea6b66;fillColor=#f8cecc;strokeColor=#b85450;strokeWidth=2;entryX=0;entryY=0.5;entryDx=0;entryDy=0;" edge="1" parent="BKhqqBYb4dWHDMiC_eZC-22" target="BKhqqBYb4dWHDMiC_eZC-24">
                    <mxGeometry width="50" height="50" relative="1" as="geometry">
                        <mxPoint x="30" y="41.25" as="sourcePoint"/>
                        <mxPoint x="90" y="40.5" as="targetPoint"/>
                    </mxGeometry>
                </mxCell>
                <mxCell id="BKhqqBYb4dWHDMiC_eZC-24" value="be" style="swimlane;fillColor=#7cd6cf;fontColor=#000000;startSize=30;fontSize=15;" vertex="1" parent="BKhqqBYb4dWHDMiC_eZC-1">
                    <mxGeometry x="320" y="211" width="70" height="50" as="geometry"/>
                </mxCell>
                <mxCell id="BKhqqBYb4dWHDMiC_eZC-25" value="or" style="swimlane;fillColor=#7cd6cf;fontColor=#000000;startSize=30;fontSize=15;" vertex="1" parent="BKhqqBYb4dWHDMiC_eZC-1">
                    <mxGeometry x="450" y="211" width="70" height="50" as="geometry"/>
                </mxCell>
                <mxCell id="BKhqqBYb4dWHDMiC_eZC-26" value="null" style="text;html=1;align=center;verticalAlign=middle;resizable=0;points=[];autosize=1;fontSize=15;fontColor=#000000;" vertex="1" parent="BKhqqBYb4dWHDMiC_eZC-1">
                    <mxGeometry x="462" y="242" width="40" height="20" as="geometry"/>
                </mxCell>
                <mxCell id="BKhqqBYb4dWHDMiC_eZC-27" value="first" style="text;html=1;align=center;verticalAlign=middle;resizable=0;points=[];autosize=1;fontSize=15;fontColor=#000000;" vertex="1" parent="BKhqqBYb4dWHDMiC_eZC-1">
                    <mxGeometry x="100" y="242" width="40" height="20" as="geometry"/>
                </mxCell>
                <mxCell id="BKhqqBYb4dWHDMiC_eZC-28" value="" style="endArrow=classic;html=1;fontSize=15;fontColor=#000000;gradientColor=#ea6b66;fillColor=#f8cecc;strokeColor=#b85450;strokeWidth=2;" edge="1" parent="BKhqqBYb4dWHDMiC_eZC-1" source="BKhqqBYb4dWHDMiC_eZC-27">
                    <mxGeometry width="50" height="50" relative="1" as="geometry">
                        <mxPoint x="140" y="251" as="sourcePoint"/>
                        <mxPoint x="200" y="251" as="targetPoint"/>
                    </mxGeometry>
                </mxCell>
                <mxCell id="BKhqqBYb4dWHDMiC_eZC-29" value="" style="endArrow=classic;html=1;fontSize=15;fontColor=#000000;gradientColor=#ea6b66;fillColor=#f8cecc;strokeColor=#b85450;strokeWidth=2;entryX=0;entryY=0.5;entryDx=0;entryDy=0;" edge="1" parent="BKhqqBYb4dWHDMiC_eZC-1" target="BKhqqBYb4dWHDMiC_eZC-25">
                    <mxGeometry width="50" height="50" relative="1" as="geometry">
                        <mxPoint x="360" y="251.13" as="sourcePoint"/>
                        <mxPoint x="450" y="234.88" as="targetPoint"/>
                    </mxGeometry>
                </mxCell>
                <mxCell id="BKhqqBYb4dWHDMiC_eZC-30" value="last" style="text;html=1;align=center;verticalAlign=middle;resizable=0;points=[];autosize=1;fontSize=15;fontColor=#000000;" vertex="1" parent="BKhqqBYb4dWHDMiC_eZC-1">
                    <mxGeometry x="510" y="181" width="40" height="20" as="geometry"/>
                </mxCell>
                <mxCell id="BKhqqBYb4dWHDMiC_eZC-31" value="oldlast" style="text;html=1;align=center;verticalAlign=middle;resizable=0;points=[];autosize=1;fontSize=15;fontColor=#000000;" vertex="1" parent="BKhqqBYb4dWHDMiC_eZC-1">
                    <mxGeometry x="390" y="181" width="60" height="20" as="geometry"/>
                </mxCell>
                <mxCell id="BKhqqBYb4dWHDMiC_eZC-32" value="" style="endArrow=classic;html=1;fontSize=15;fontColor=#000000;gradientColor=#ea6b66;fillColor=#f8cecc;strokeColor=#b85450;strokeWidth=2;entryX=0;entryY=0.5;entryDx=0;entryDy=0;" edge="1" parent="BKhqqBYb4dWHDMiC_eZC-1" source="BKhqqBYb4dWHDMiC_eZC-30" target="BKhqqBYb4dWHDMiC_eZC-34">
                    <mxGeometry width="50" height="50" relative="1" as="geometry">
                        <mxPoint x="150" y="261.75" as="sourcePoint"/>
                        <mxPoint x="450" y="231" as="targetPoint"/>
                    </mxGeometry>
                </mxCell>
                <mxCell id="BKhqqBYb4dWHDMiC_eZC-33" value="" style="endArrow=classic;html=1;fontSize=15;fontColor=#000000;gradientColor=#ea6b66;fillColor=#f8cecc;strokeColor=#b85450;strokeWidth=2;entryX=0;entryY=0.5;entryDx=0;entryDy=0;exitX=0.367;exitY=1;exitDx=0;exitDy=0;exitPerimeter=0;" edge="1" parent="BKhqqBYb4dWHDMiC_eZC-1" source="BKhqqBYb4dWHDMiC_eZC-31" target="BKhqqBYb4dWHDMiC_eZC-25">
                    <mxGeometry width="50" height="50" relative="1" as="geometry">
                        <mxPoint x="412" y="211" as="sourcePoint"/>
                        <mxPoint x="460" y="251" as="targetPoint"/>
                    </mxGeometry>
                </mxCell>
                <mxCell id="BKhqqBYb4dWHDMiC_eZC-34" value="not" style="swimlane;fillColor=#7cd6cf;fontColor=#000000;startSize=30;fontSize=15;" vertex="1" parent="BKhqqBYb4dWHDMiC_eZC-1">
                    <mxGeometry x="560" y="211" width="70" height="51" as="geometry"/>
                </mxCell>
                <mxCell id="BKhqqBYb4dWHDMiC_eZC-35" value="null" style="text;html=1;align=center;verticalAlign=middle;resizable=0;points=[];autosize=1;fontSize=15;fontColor=#000000;" vertex="1" parent="BKhqqBYb4dWHDMiC_eZC-34">
                    <mxGeometry x="15" y="31" width="40" height="20" as="geometry"/>
                </mxCell>
                <mxCell id="BKhqqBYb4dWHDMiC_eZC-36" value=" to" style="swimlane;fillColor=#7cd6cf;fontColor=#000000;startSize=30;fontSize=15;" vertex="1" parent="BKhqqBYb4dWHDMiC_eZC-1">
                    <mxGeometry x="200" y="310" width="70" height="50" as="geometry"/>
                </mxCell>
                <mxCell id="BKhqqBYb4dWHDMiC_eZC-37" value="" style="endArrow=classic;html=1;fontSize=15;fontColor=#000000;gradientColor=#ea6b66;fillColor=#f8cecc;strokeColor=#b85450;strokeWidth=2;entryX=0;entryY=0.5;entryDx=0;entryDy=0;" edge="1" parent="BKhqqBYb4dWHDMiC_eZC-36" target="BKhqqBYb4dWHDMiC_eZC-38">
                    <mxGeometry width="50" height="50" relative="1" as="geometry">
                        <mxPoint x="30" y="41.25" as="sourcePoint"/>
                        <mxPoint x="90" y="40.5" as="targetPoint"/>
                    </mxGeometry>
                </mxCell>
                <mxCell id="BKhqqBYb4dWHDMiC_eZC-38" value="be" style="swimlane;fillColor=#7cd6cf;fontColor=#000000;startSize=30;fontSize=15;" vertex="1" parent="BKhqqBYb4dWHDMiC_eZC-1">
                    <mxGeometry x="320" y="310" width="70" height="50" as="geometry"/>
                </mxCell>
                <mxCell id="BKhqqBYb4dWHDMiC_eZC-39" value="or" style="swimlane;fillColor=#7cd6cf;fontColor=#000000;startSize=30;fontSize=15;" vertex="1" parent="BKhqqBYb4dWHDMiC_eZC-1">
                    <mxGeometry x="450" y="310" width="70" height="50" as="geometry"/>
                </mxCell>
                <mxCell id="BKhqqBYb4dWHDMiC_eZC-41" value="first" style="text;html=1;align=center;verticalAlign=middle;resizable=0;points=[];autosize=1;fontSize=15;fontColor=#000000;" vertex="1" parent="BKhqqBYb4dWHDMiC_eZC-1">
                    <mxGeometry x="100" y="341" width="40" height="20" as="geometry"/>
                </mxCell>
                <mxCell id="BKhqqBYb4dWHDMiC_eZC-42" value="" style="endArrow=classic;html=1;fontSize=15;fontColor=#000000;gradientColor=#ea6b66;fillColor=#f8cecc;strokeColor=#b85450;strokeWidth=2;" edge="1" parent="BKhqqBYb4dWHDMiC_eZC-1" source="BKhqqBYb4dWHDMiC_eZC-41">
                    <mxGeometry width="50" height="50" relative="1" as="geometry">
                        <mxPoint x="140" y="350" as="sourcePoint"/>
                        <mxPoint x="200" y="350" as="targetPoint"/>
                    </mxGeometry>
                </mxCell>
                <mxCell id="BKhqqBYb4dWHDMiC_eZC-43" value="" style="endArrow=classic;html=1;fontSize=15;fontColor=#000000;gradientColor=#ea6b66;fillColor=#f8cecc;strokeColor=#b85450;strokeWidth=2;entryX=0;entryY=0.5;entryDx=0;entryDy=0;" edge="1" parent="BKhqqBYb4dWHDMiC_eZC-1" target="BKhqqBYb4dWHDMiC_eZC-39">
                    <mxGeometry width="50" height="50" relative="1" as="geometry">
                        <mxPoint x="360" y="350.13" as="sourcePoint"/>
                        <mxPoint x="450" y="333.88" as="targetPoint"/>
                    </mxGeometry>
                </mxCell>
                <mxCell id="BKhqqBYb4dWHDMiC_eZC-44" value="last" style="text;html=1;align=center;verticalAlign=middle;resizable=0;points=[];autosize=1;fontSize=15;fontColor=#000000;" vertex="1" parent="BKhqqBYb4dWHDMiC_eZC-1">
                    <mxGeometry x="510" y="280" width="40" height="20" as="geometry"/>
                </mxCell>
                <mxCell id="BKhqqBYb4dWHDMiC_eZC-45" value="oldlast" style="text;html=1;align=center;verticalAlign=middle;resizable=0;points=[];autosize=1;fontSize=15;fontColor=#000000;" vertex="1" parent="BKhqqBYb4dWHDMiC_eZC-1">
                    <mxGeometry x="390" y="280" width="60" height="20" as="geometry"/>
                </mxCell>
                <mxCell id="BKhqqBYb4dWHDMiC_eZC-46" value="" style="endArrow=classic;html=1;fontSize=15;fontColor=#000000;gradientColor=#ea6b66;fillColor=#f8cecc;strokeColor=#b85450;strokeWidth=2;entryX=0;entryY=0.5;entryDx=0;entryDy=0;" edge="1" parent="BKhqqBYb4dWHDMiC_eZC-1" source="BKhqqBYb4dWHDMiC_eZC-44" target="BKhqqBYb4dWHDMiC_eZC-48">
                    <mxGeometry width="50" height="50" relative="1" as="geometry">
                        <mxPoint x="150" y="360.75" as="sourcePoint"/>
                        <mxPoint x="450" y="330" as="targetPoint"/>
                    </mxGeometry>
                </mxCell>
                <mxCell id="BKhqqBYb4dWHDMiC_eZC-47" value="" style="endArrow=classic;html=1;fontSize=15;fontColor=#000000;gradientColor=#ea6b66;fillColor=#f8cecc;strokeColor=#b85450;strokeWidth=2;entryX=0;entryY=0.5;entryDx=0;entryDy=0;exitX=0.367;exitY=1;exitDx=0;exitDy=0;exitPerimeter=0;" edge="1" parent="BKhqqBYb4dWHDMiC_eZC-1" source="BKhqqBYb4dWHDMiC_eZC-45" target="BKhqqBYb4dWHDMiC_eZC-39">
                    <mxGeometry width="50" height="50" relative="1" as="geometry">
                        <mxPoint x="412" y="310" as="sourcePoint"/>
                        <mxPoint x="460" y="350" as="targetPoint"/>
                    </mxGeometry>
                </mxCell>
                <mxCell id="BKhqqBYb4dWHDMiC_eZC-48" value="not" style="swimlane;fillColor=#7cd6cf;fontColor=#000000;startSize=30;fontSize=15;" vertex="1" parent="BKhqqBYb4dWHDMiC_eZC-1">
                    <mxGeometry x="560" y="310" width="70" height="51" as="geometry"/>
                </mxCell>
                <mxCell id="BKhqqBYb4dWHDMiC_eZC-49" value="null" style="text;html=1;align=center;verticalAlign=middle;resizable=0;points=[];autosize=1;fontSize=15;fontColor=#000000;" vertex="1" parent="BKhqqBYb4dWHDMiC_eZC-48">
                    <mxGeometry x="15" y="31" width="40" height="20" as="geometry"/>
                </mxCell>
                <mxCell id="BKhqqBYb4dWHDMiC_eZC-50" value="" style="endArrow=classic;html=1;fontSize=15;fontColor=#000000;gradientColor=#ea6b66;fillColor=#f8cecc;strokeColor=#b85450;strokeWidth=2;entryX=0;entryY=0.5;entryDx=0;entryDy=0;" edge="1" parent="BKhqqBYb4dWHDMiC_eZC-1" target="BKhqqBYb4dWHDMiC_eZC-48">
                    <mxGeometry width="50" height="50" relative="1" as="geometry">
                        <mxPoint x="480" y="350" as="sourcePoint"/>
                        <mxPoint x="560" y="340" as="targetPoint"/>
                    </mxGeometry>
                </mxCell>
            </root>
        </mxGraphModel>
    </diagram>
</mxfile>